HIERARCHY
ROOT Hips
{
	OFFSET 0.000000 100.481300 0.000000
	CHANNELS 6 Xposition Yposition Zposition Xrotation Yrotation Zrotation
	JOINT Spine
	{
		OFFSET -0.279200 12.230698 -2.892100
		CHANNELS 3 Xrotation Yrotation Zrotation
		JOINT Spine1
		{
			OFFSET -0.325700 14.269203 -3.374200
			CHANNELS 3 Xrotation Yrotation Zrotation
			JOINT Spine2
			{
				OFFSET -0.372300 16.307602 -0.352600
				CHANNELS 3 Xrotation Yrotation Zrotation
				JOINT Neck
				{
					OFFSET -0.418800 17.814194 8.416900
					CHANNELS 3 Xrotation Yrotation Zrotation
					JOINT Head
					{
						OFFSET 0.000000 7.031097 3.806800
						CHANNELS 3 Xrotation Yrotation Zrotation
						JOINT HeadTop_End
						{
							OFFSET 0.000000 24.646606 12.978600
							CHANNELS 3 Xrotation Yrotation Zrotation
							End Site
							{
								OFFSET 0.000000 27.854965 0.000000
							}
						}
					}
				}
				JOINT LeftShoulder
				{
					OFFSET 16.952999 14.495407 -7.737500
					CHANNELS 3 Xrotation Yrotation Zrotation
					JOINT LeftArm
					{
						OFFSET 9.308998 -2.777710 0.208600
						CHANNELS 3 Xrotation Yrotation Zrotation
						JOINT LeftForeArm
						{
							OFFSET 29.972298 0.000000 0.000000
							CHANNELS 3 Xrotation Yrotation Zrotation
							JOINT LeftHand
							{
								OFFSET 26.026505 0.000000 0.000000
								CHANNELS 3 Xrotation Yrotation Zrotation
								JOINT LeftHandThumb1
								{
									OFFSET 12.240501 -7.147949 9.207150
									CHANNELS 3 Xrotation Yrotation Zrotation
									JOINT LeftHandThumb2
									{
										OFFSET 4.138618 -2.389435 2.389433
										CHANNELS 3 Xrotation Yrotation Zrotation
										JOINT LeftHandThumb3
										{
											OFFSET 2.726913 -1.574387 1.574386
											CHANNELS 3 Xrotation Yrotation Zrotation
											JOINT LeftHandThumb4
											{
												OFFSET 3.941010 -2.275345 2.275342
												CHANNELS 3 Xrotation Yrotation Zrotation
												End Site
												{
													OFFSET -0.005798 5.087799 0.009903
												}
											}
										}
									}
								}
								JOINT LeftHandIndex1
								{
									OFFSET 24.424698 -1.985611 5.953459
									CHANNELS 3 Xrotation Yrotation Zrotation
									JOINT LeftHandIndex2
									{
										OFFSET 6.426697 0.000000 0.000000
										CHANNELS 3 Xrotation Yrotation Zrotation
										JOINT LeftHandIndex3
										{
											OFFSET 5.337898 0.000000 0.000000
											CHANNELS 3 Xrotation Yrotation Zrotation
											JOINT LeftHandIndex4
											{
												OFFSET 4.409401 0.000000 0.000000
												CHANNELS 3 Xrotation Yrotation Zrotation
												End Site
												{
													OFFSET 0.000000 4.409363 0.014373
												}
											}
										}
									}
								}
								JOINT LeftHandMiddle1
								{
									OFFSET 23.810104 0.000000 0.000000
									CHANNELS 3 Xrotation Yrotation Zrotation
									JOINT LeftHandMiddle2
									{
										OFFSET 7.176498 0.000000 0.000000
										CHANNELS 3 Xrotation Yrotation Zrotation
										JOINT LeftHandMiddle3
										{
											OFFSET 6.774902 0.000000 0.000000
											CHANNELS 3 Xrotation Yrotation Zrotation
											JOINT LeftHandMiddle4
											{
												OFFSET 5.403328 0.000000 0.000000
												CHANNELS 3 Xrotation Yrotation Zrotation
												End Site
												{
													OFFSET -0.027702 5.403244 0.017414
												}
											}
										}
									}
								}
								JOINT LeftHandRing1
								{
									OFFSET 22.908401 -0.839279 -6.020567
									CHANNELS 3 Xrotation Yrotation Zrotation
									JOINT LeftHandRing2
									{
										OFFSET 6.337502 0.000000 0.000000
										CHANNELS 3 Xrotation Yrotation Zrotation
										JOINT LeftHandRing3
										{
											OFFSET 5.779297 0.000000 0.000000
											CHANNELS 3 Xrotation Yrotation Zrotation
											JOINT LeftHandRing4
											{
												OFFSET 4.965698 0.000000 0.000000
												CHANNELS 3 Xrotation Yrotation Zrotation
												End Site
												{
													OFFSET 0.000000 4.965668 0.016186
												}
											}
										}
									}
								}
								JOINT LeftHandPinky1
								{
									OFFSET 20.037003 -1.530319 -10.950146
									CHANNELS 3 Xrotation Yrotation Zrotation
									JOINT LeftHandPinky2
									{
										OFFSET 5.254700 0.000000 0.000000
										CHANNELS 3 Xrotation Yrotation Zrotation
										JOINT LeftHandPinky3
										{
											OFFSET 4.810204 0.000000 0.000000
											CHANNELS 3 Xrotation Yrotation Zrotation
											JOINT LeftHandPinky4
											{
												OFFSET 3.647202 0.000000 0.000000
												CHANNELS 3 Xrotation Yrotation Zrotation
												End Site
												{
													OFFSET 0.000000 3.647186 0.011889
												}
											}
										}
									}
								}
							}
						}
					}
				}
				JOINT RightShoulder
				{
					OFFSET -15.141001 14.495407 -7.737500
					CHANNELS 3 Xrotation Yrotation Zrotation
					JOINT RightArm
					{
						OFFSET -9.308998 -2.777710 0.208500
						CHANNELS 3 Xrotation Yrotation Zrotation
						JOINT RightForeArm
						{
							OFFSET -29.972300 0.000000 0.000000
							CHANNELS 3 Xrotation Yrotation Zrotation
							JOINT RightHand
							{
								OFFSET -26.026505 0.000000 0.000000
								CHANNELS 3 Xrotation Yrotation Zrotation
								JOINT RightHandThumb1
								{
									OFFSET -12.240601 -7.148026 9.207092
									CHANNELS 3 Xrotation Yrotation Zrotation
									JOINT RightHandThumb2
									{
										OFFSET -4.138618 -2.389435 2.389433
										CHANNELS 3 Xrotation Yrotation Zrotation
										JOINT RightHandThumb3
										{
											OFFSET -2.726974 -1.574417 1.574421
											CHANNELS 3 Xrotation Yrotation Zrotation
											JOINT RightHandThumb4
											{
												OFFSET -3.941010 -2.275345 2.275343
												CHANNELS 3 Xrotation Yrotation Zrotation
												End Site
												{
													OFFSET 0.005814 5.087799 0.009927
												}
											}
										}
									}
								}
								JOINT RightHandIndex1
								{
									OFFSET -24.424698 -1.985657 5.953444
									CHANNELS 3 Xrotation Yrotation Zrotation
									JOINT RightHandIndex2
									{
										OFFSET -6.426697 0.000000 0.000000
										CHANNELS 3 Xrotation Yrotation Zrotation
										JOINT RightHandIndex3
										{
											OFFSET -5.337898 0.000000 0.000000
											CHANNELS 3 Xrotation Yrotation Zrotation
											JOINT RightHandIndex4
											{
												OFFSET -4.409401 0.000000 0.000000
												CHANNELS 3 Xrotation Yrotation Zrotation
												End Site
												{
													OFFSET 0.000000 4.409363 0.014408
												}
											}
										}
									}
								}
								JOINT RightHandMiddle1
								{
									OFFSET -23.810097 0.000000 0.000000
									CHANNELS 3 Xrotation Yrotation Zrotation
									JOINT RightHandMiddle2
									{
										OFFSET -7.176498 0.000000 0.000000
										CHANNELS 3 Xrotation Yrotation Zrotation
										JOINT RightHandMiddle3
										{
											OFFSET -6.774902 0.000000 0.000000
											CHANNELS 3 Xrotation Yrotation Zrotation
											JOINT RightHandMiddle4
											{
												OFFSET -5.403328 0.000000 0.000000
												CHANNELS 3 Xrotation Yrotation Zrotation
												End Site
												{
													OFFSET 0.027702 5.403244 0.017457
												}
											}
										}
									}
								}
								JOINT RightHandRing1
								{
									OFFSET -22.908302 -0.839325 -6.020576
									CHANNELS 3 Xrotation Yrotation Zrotation
									JOINT RightHandRing2
									{
										OFFSET -6.337502 0.000000 0.000000
										CHANNELS 3 Xrotation Yrotation Zrotation
										JOINT RightHandRing3
										{
											OFFSET -5.779297 0.000000 0.000000
											CHANNELS 3 Xrotation Yrotation Zrotation
											JOINT RightHandRing4
											{
												OFFSET -4.965698 0.000000 0.000000
												CHANNELS 3 Xrotation Yrotation Zrotation
												End Site
												{
													OFFSET 0.000000 4.965668 0.016226
												}
											}
										}
									}
								}
								JOINT RightHandPinky1
								{
									OFFSET -20.037003 -1.530334 -10.950259
									CHANNELS 3 Xrotation Yrotation Zrotation
									JOINT RightHandPinky2
									{
										OFFSET -5.254700 0.000000 0.000000
										CHANNELS 3 Xrotation Yrotation Zrotation
										JOINT RightHandPinky3
										{
											OFFSET -4.810204 0.000000 0.000000
											CHANNELS 3 Xrotation Yrotation Zrotation
											JOINT RightHandPinky4
											{
												OFFSET -3.647202 0.000000 0.000000
												CHANNELS 3 Xrotation Yrotation Zrotation
												End Site
												{
													OFFSET 0.000000 3.647186 0.011917
												}
											}
										}
									}
								}
							}
						}
					}
				}
			}
		}
	}
	JOINT LeftUpLeg
	{
		OFFSET 15.427100 -6.655098 0.678600
		CHANNELS 3 Xrotation Yrotation Zrotation
		JOINT LeftLeg
		{
			OFFSET 4.081073 -39.591068 13.024000
			CHANNELS 3 Xrotation Yrotation Zrotation
			JOINT LeftFoot
			{
				OFFSET -4.081074 -37.707932 -15.979700
				CHANNELS 3 Xrotation Yrotation Zrotation
				JOINT LeftToeBase
				{
					OFFSET 5.346399 -15.068900 20.645000
					CHANNELS 3 Xrotation Yrotation Zrotation
					JOINT LeftToe_End
					{
						OFFSET 2.754700 0.931300 11.300900
						CHANNELS 3 Xrotation Yrotation Zrotation
						End Site
						{
							OFFSET 0.000000 11.669021 0.000000
						}
					}
				}
			}
		}
	}
	JOINT RightUpLeg
	{
		OFFSET -15.569500 -6.655098 0.678600
		CHANNELS 3 Xrotation Yrotation Zrotation
		JOINT RightLeg
		{
			OFFSET -4.081825 -39.591045 13.023800
			CHANNELS 3 Xrotation Yrotation Zrotation
			JOINT RightFoot
			{
				OFFSET 4.081824 -37.707954 -15.979600
				CHANNELS 3 Xrotation Yrotation Zrotation
				JOINT RightToeBase
				{
					OFFSET -5.346400 -15.068900 20.645000
					CHANNELS 3 Xrotation Yrotation Zrotation
					JOINT RightToe_End
					{
						OFFSET -2.754700 0.931300 11.300900
						CHANNELS 3 Xrotation Yrotation Zrotation
						End Site
						{
							OFFSET 0.000000 11.669021 0.000000
						}
					}
				}
			}
		}
	}
}
MOTION
Frames: 5
Frame Time: 0.033333
-153.390472 71.536255 88.577141 103.759999 -1.718831 152.668894 6.313492 -3.908923 4.662104 13.073094 -3.562688 7.614216 13.074961 -3.479626 7.640901 9.282547 -1.121562 10.539625 15.955744 8.920436 -6.543742 -0.000004 0.000000 -0.000001 0.916972 -9.653845 -3.647077 -56.731630 -62.750935 -18.829515 -0.000008 -26.044778 0.000014 41.824219 -22.282341 39.855158 -6.903365 -18.349863 -0.739328 7.467306 27.364274 5.022082 -10.707827 -15.663121 14.329558 0.000002 0.000002 -0.000000 1.744485 -1.893155 -31.466046 0.000103 0.036549 -0.356715 0.073762 -0.927731 9.092013 0.000002 -0.000002 -0.000000 -0.529386 1.930037 -21.313054 0.017011 0.446603 -4.362306 0.892980 3.110719 -32.027215 -0.000001 -0.000003 0.000002 0.169640 4.047007 -28.599404 0.003248 0.195452 -1.907577 0.035347 -0.643403 6.291549 0.000002 -0.000001 -0.000001 -0.654882 3.237084 -19.102740 -0.000002 0.001436 -0.014085 0.013261 -0.394411 3.851709 0.000001 -0.000001 0.000001 1.550538 8.796380 3.103689 -56.804781 -26.034227 15.337463 -0.000003 30.270121 0.000001 36.309064 13.232409 -19.227548 -13.933879 24.823648 -12.667408 8.765446 -32.887456 -4.693439 -7.056230 3.101013 -14.195946 -0.000004 -0.000003 -0.000002 -0.104205 3.594335 7.612043 0.000169 -0.041052 0.503935 0.000187 -0.040695 0.499556 0.000003 -0.000002 -0.000001 0.398021 -4.512029 11.084227 0.000893 -0.091041 1.117622 0.005050 -0.217333 2.668875 0.000001 0.000000 0.000000 0.514831 -4.684446 14.371379 0.006252 -0.241715 2.968553 0.047800 -0.666271 8.207211 -0.000001 -0.000000 0.000001 1.126452 -6.581118 16.494297 0.037645 -0.591618 7.282234 0.077094 -0.844676 10.427114 -0.000000 -0.000000 0.000000 -85.706498 -5.445039 49.405740 39.127275 -1.116978 -14.512571 -4.693263 26.298334 -19.302859 -22.941998 -0.000026 -0.000010 -0.000000 0.000000 0.000000 -119.831243 12.570605 -15.119949 31.154456 11.485076 -2.066062 4.790461 15.024184 25.667373 0.064275 -0.548892 2.905435 0.000000 -0.000000 -0.000000 
-156.200348 72.801743 92.626816 93.742140 16.061268 168.394954 6.456614 -2.461089 5.106713 13.275689 -3.280766 8.430342 13.281841 -3.201505 8.442414 9.558495 -1.648210 7.876425 18.403642 0.255807 5.905725 -0.000000 -0.000001 0.000001 0.722630 -8.549799 -6.761404 -27.008660 -65.522503 17.130352 0.000001 -15.018445 0.000003 43.951280 -11.697324 26.397278 -7.283717 -18.736402 0.650555 7.464710 27.374159 5.081658 -10.712165 -15.674946 14.379821 -0.000000 -0.000003 -0.000000 1.492130 -3.846393 -18.335675 0.000002 0.004630 -0.045203 0.125910 -1.209333 11.887903 0.000003 -0.000002 -0.000002 -0.744269 -0.159386 -14.197331 0.001012 0.108856 -1.062332 0.018776 0.469225 -4.583857 0.000003 0.000002 -0.000001 -1.007459 0.129458 -18.760843 0.000717 0.091838 -0.896196 0.168631 -1.396893 13.766084 0.000001 -0.000001 -0.000001 -0.775703 2.179618 -11.220627 -0.000001 0.001846 -0.018049 0.160735 -1.364266 13.438399 0.000004 -0.000000 0.000001 0.874564 8.801139 0.700612 -41.955895 -33.113987 33.231339 0.000012 25.711332 -0.000003 29.840997 -4.203479 -12.396506 -13.561960 24.378726 -12.302904 8.803234 -33.320590 -4.722564 -7.056233 3.101010 -14.195949 -0.000000 -0.000004 -0.000000 -0.101601 3.402792 6.541557 0.000025 -0.014641 0.179801 0.000244 0.047249 -0.579977 -0.000000 0.000001 0.000001 0.367183 -4.452809 10.272916 0.000128 -0.032494 0.398774 0.002939 -0.165660 2.033966 0.000001 0.000000 -0.000000 0.462978 -4.595743 13.071725 0.001964 -0.135906 1.668648 0.039043 -0.602420 7.416055 0.000001 -0.000000 -0.000002 1.387270 -7.847443 14.994982 0.021513 -0.447700 5.504370 0.056639 -0.724899 8.935364 0.000001 0.000001 0.000000 -88.634791 -8.122388 51.414314 50.458460 6.605907 -11.085825 -15.707196 31.334306 -13.187570 -30.412063 0.000022 0.000017 0.000001 -0.000001 -0.000000 -125.767087 0.378251 -12.808329 21.341172 9.935337 7.615889 6.804237 6.772822 14.174903 20.600602 -0.088515 3.417583 0.000001 0.000002 -0.000001 
-160.029190 71.901230 94.853668 81.047503 22.765447 186.742563 7.139102 -3.140555 5.511777 14.791482 -2.639954 8.717971 14.792699 -2.512228 8.737280 8.472704 -2.697222 8.764939 15.740944 -4.090140 6.182659 -0.000001 -0.000000 -0.000001 0.714248 -7.955050 -6.490559 -18.993060 -50.833632 27.949791 0.000002 -1.806302 -0.000001 42.311133 7.208349 55.449200 -19.842248 -22.698838 16.196446 7.624888 27.297396 4.730293 -10.714381 -15.680642 14.406877 0.000000 -0.000000 0.000002 2.113578 -8.305481 11.055005 0.000001 -0.000002 -0.000000 0.025563 0.547278 -5.348505 0.000001 0.000001 -0.000000 0.548036 -4.664118 3.729580 -0.000001 0.000001 -0.000007 0.193073 -1.493088 14.735184 0.000000 -0.000001 0.000001 0.293667 -2.661904 2.450497 0.000000 0.001241 -0.012121 0.198057 -1.511914 14.925355 -0.000001 0.000001 0.000000 -0.394298 2.181504 -2.994895 0.000001 0.001237 -0.012140 0.198057 -1.511910 14.925345 -0.000000 -0.000001 -0.000000 0.590626 7.699671 -2.288651 -28.398543 -28.858113 46.521047 0.000011 22.575840 -0.000007 19.460660 -11.719484 -14.504516 -13.204493 23.948378 -11.883902 8.843468 -33.782597 -4.753464 -7.056231 3.101015 -14.195947 -0.000002 -0.000003 0.000000 -0.109453 3.188637 5.508116 0.000002 -0.000003 -0.000001 0.001819 0.129685 -1.592337 0.000002 -0.000002 -0.000001 0.340426 -4.400035 9.546823 -0.000005 -0.000007 0.000043 0.001644 -0.123907 1.521305 0.000001 0.000003 0.000001 0.417939 -4.516357 11.890676 0.000192 -0.042396 0.520406 0.032437 -0.549212 6.757660 0.000002 0.000001 0.000001 1.609649 -9.181807 13.638532 0.010827 -0.317633 3.902155 0.041055 -0.617623 7.604167 0.000001 -0.000003 -0.000001 -89.358258 -7.508961 49.183581 58.579479 7.725036 -10.166736 -22.006890 36.506825 -15.131671 -38.714509 0.000001 0.000004 -0.000001 -0.000004 -0.000001 -120.499509 7.007206 -14.572589 21.616034 -2.442598 1.956893 16.879546 0.797402 10.517976 12.227236 -1.384553 13.126561 0.000001 0.000000 0.000002 
-164.801422 71.678680 95.645035 67.214655 24.959284 206.125588 7.689494 -1.837821 5.330300 15.778528 -1.003123 8.756079 15.767965 -0.945681 8.773424 6.563925 -1.813389 6.262101 7.639155 -4.845598 11.254274 -0.000001 0.000001 0.000001 -1.325914 -9.776894 -9.410736 -32.988625 -25.765598 21.729012 -0.000005 -19.512099 0.000004 22.822717 -6.170135 76.915279 -13.973556 -20.644206 9.465923 7.769678 27.228382 4.403636 -10.714733 -15.681856 14.415533 0.000001 -0.000000 -0.000001 -0.730915 -11.657792 -4.628713 0.000002 -0.000000 0.000000 0.011636 -0.369456 3.607724 0.000000 -0.000001 -0.000000 -0.297562 -2.291532 -4.507926 -0.000002 0.000007 0.000001 0.030606 -0.598697 5.852680 0.000000 -0.000002 -0.000000 0.113939 3.272468 -4.024725 0.000000 0.000001 -0.000000 0.180171 -1.443157 14.231702 0.000000 -0.000003 -0.000000 0.276132 9.540229 -6.729123 0.000002 -0.000003 -0.000007 0.147476 -1.307559 12.869743 0.000000 -0.000001 -0.000000 0.704883 4.535874 -6.464945 -28.106548 -19.023079 50.974088 -0.000000 9.725708 -0.000002 17.157644 0.097096 -17.174079 -12.905835 23.589044 -11.402004 8.885865 -34.271174 -4.785968 -7.056232 3.101011 -14.195947 -0.000000 -0.000004 0.000002 -0.128062 2.946991 4.646072 0.000002 0.000001 0.000001 0.004015 0.193517 -2.376227 -0.000000 -0.000002 -0.000000 0.323005 -4.365896 9.057770 -0.000001 0.000004 0.000003 0.001209 -0.105828 1.299119 0.000001 0.000002 0.000001 0.387763 -4.463551 11.055568 -0.000004 -0.000003 0.000006 0.029301 -0.522225 6.424223 0.000002 -0.000001 -0.000001 1.791664 -10.387401 12.703972 0.005562 -0.227907 2.798718 0.032038 -0.545850 6.716432 -0.000001 0.000001 -0.000000 -89.721003 -5.631138 45.014864 63.868068 9.592172 -9.769630 -27.337472 41.011830 -17.029905 -45.858211 0.000009 0.000000 0.000003 0.000000 -0.000001 -112.030607 12.936849 -20.746385 18.447806 5.742699 -1.286134 13.791994 0.291544 19.295763 16.176103 0.000008 -0.000005 -0.000002 -0.000001 -0.000001 
-165.825012 70.656181 97.586349 55.038238 19.228101 223.215350 7.073159 -2.020855 5.259556 14.572714 0.507390 8.510169 14.555705 0.473577 8.544683 3.838594 -0.314945 0.981499 -0.198657 -4.665359 14.189767 -0.000000 0.000001 -0.000001 1.118658 -11.177129 -1.880046 -43.681662 6.164090 7.085771 -0.000007 -37.974889 -0.000010 12.572307 -8.639395 84.604734 -13.973018 -20.644395 9.466359 7.770290 27.228322 4.403542 -10.714857 -15.681812 14.416487 0.000000 0.000001 0.000001 -0.730904 -11.657676 -4.628701 0.000001 -0.000000 -0.000000 0.011639 -0.369460 3.607732 0.000000 -0.000001 -0.000000 -0.297560 -2.291545 -4.507927 0.000002 0.000009 -0.000134 0.030605 -0.598701 5.852672 -0.000000 -0.000001 0.000000 0.113939 3.272463 -4.024727 -0.000000 -0.000127 0.000001 0.180170 -1.443163 14.231696 -0.000000 0.000001 0.000001 0.276133 9.540199 -6.729129 -0.000000 -0.000225 -0.000003 0.147475 -1.307550 12.869740 0.000001 -0.000002 -0.000000 0.744214 3.261348 -8.519321 -25.847994 -15.351171 52.413157 -0.000005 4.140095 0.000008 14.988256 13.805740 -20.340920 -12.709229 23.357350 -10.850496 8.930269 -34.784142 -4.819867 -7.056234 3.101015 -14.195944 0.000001 -0.000002 -0.000003 -0.154858 2.671945 4.089982 -0.000001 0.000002 -0.000000 0.005452 0.225572 -2.770306 -0.000001 0.000001 0.000000 0.320283 -4.363959 8.957505 0.000000 -0.000003 -0.000002 0.001674 -0.125086 1.535609 0.000001 -0.000001 -0.000001 0.379966 -4.454972 10.793805 0.000003 0.000006 0.000126 0.031024 -0.537080 6.607954 0.000000 0.000001 -0.000002 1.963983 -11.262860 12.473817 0.004501 -0.204986 2.517224 0.030506 -0.532796 6.555003 0.000001 0.000004 -0.000001 -91.678617 -5.369699 41.612415 66.434791 7.905633 -10.555276 -28.742443 43.457990 -21.646507 -51.694413 -0.000001 0.000005 0.000001 0.000000 -0.000001 -103.107006 22.302161 -34.428132 23.554099 6.818400 -5.707990 2.507442 5.541937 34.545540 14.774275 0.000015 0.000012 -0.000000 -0.000002 -0.000000 
